<?xml version="1.0" encoding="UTF-8"?>
<!DOCTYPE svg PUBLIC "-//W3C//DTD SVG 1.1//EN" "http://www.w3.org/Graphics/SVG/1.1/DTD/svg11.dtd">
<!-- Creator: CorelDRAW -->
<svg xmlns="http://www.w3.org/2000/svg" xml:space="preserve" version="1.1" style="shape-rendering:geometricPrecision; text-rendering:geometricPrecision; image-rendering:optimizeQuality; fill-rule:evenodd; clip-rule:evenodd"
viewBox="0 0 3941.55 2120.24" width="3941.55" height="2120.24"
 xmlns:xlink="http://www.w3.org/1999/xlink"
 xmlns:xodm="http://www.corel.com/coreldraw/odm/2003">
 <defs>
  <style type="text/css">
   <![CDATA[
    .fil8 {fill:#FEFEFE}
    .fil4 {fill:#A4CFAE}
    .fil7 {fill:#239ED9}
    .fil0 {fill:#FEFEFE;fill-rule:nonzero}
    .fil3 {fill:#E60A80;fill-rule:nonzero}
    .fil5 {fill:#9FD4F3;fill-rule:nonzero}
    .fil2 {fill:#A4CFAE;fill-rule:nonzero}
    .fil1 {fill:#6FCAF1;fill-rule:nonzero}
    .fil6 {fill:#239ED9;fill-rule:nonzero}
   ]]>
  </style>
 </defs>
 <g id="Camada_x0020_1">
  <metadata id="CorelCorpID_0Corel-Layer"/>
  <path class="fil0" d="M1427.53 522.08c-62.51,18.41 -125.01,36.82 -187.52,55.23 -1.46,100.79 -2.9,201.58 -4.36,302.37 -59.99,-139.21 -171.83,-203.49 -338.71,-125l0 -26.17c-72.2,0.49 -144.41,0.97 -216.6,1.45l0 97.4c-19.87,-14.53 -39.73,-29.07 -59.6,-43.6 29.56,-39.74 59.12,-79.47 88.68,-119.21 -86.72,-61.95 -173.24,-124.46 -272.07,-147.19 -188.27,-43.3 -422.5,85.61 -391.3,299.75 8.83,60.61 46.33,111.29 99.33,170.17 -48.47,51.36 -96.92,102.73 -145.38,154.08 217.26,209.38 427.85,232.16 655.62,31.98 1.46,33.93 2.9,67.85 4.36,101.76 -113.67,44.21 -356.48,199.59 -449.88,352.2 -63,102.92 -33.14,181.52 9.99,154.7 61.39,-38.16 185.85,-280.47 467.5,-307.74 -0.5,7.27 -0.98,14.53 -1.46,21.81l236.96 0c0.96,-11.64 1.93,-23.26 2.9,-34.89 208.85,23.2 362.98,62.52 561.14,122.11 109.22,36.63 204.75,65.59 300.77,87.86 114.73,26.64 214.85,42.38 311.16,47.26 437.82,22.17 729.01,-151.52 1045.29,-421.51 46.51,-0.49 93.04,-0.97 139.55,-1.45 -1.93,-125.99 -3.87,-251.98 -5.81,-377.97 96.06,-82.01 14.29,-177.36 -74.13,-145.36 -59.62,-50.12 -153.84,-84.05 -255.86,-29.08 -1.46,-83.34 -2.91,-166.69 -4.36,-250.03l-263.11 0 0 316.9c-136.55,-100.23 -356.15,-157.11 -482.63,69.77 0.97,-46.51 1.93,-93.03 2.9,-139.55 -77.53,-1.46 -155.06,-2.9 -232.59,-4.36 -2.43,5.33 -4.85,10.66 -7.27,15.99 -63.55,-21.78 -100.75,-39.81 -212.24,4.36 89.64,-85.99 202.09,-124.78 270.19,-212.95 58.38,-75.59 69.35,-165.41 -57.95,-221.72 192.56,-165.6 -28.84,-333.05 -202.07,-148.27 28.79,-267.19 -384.99,-226.84 -200.61,132.29 -162.15,-189.36 -269.62,56.63 -171.72,164.26 11.9,13.08 27.39,25.36 40.89,52.35z"/>
  <path class="fil1" d="M1552.9 1025.62c41.05,-217.82 153.42,-350.07 300.6,-420.22 298.71,-142.35 60.45,-417.25 -154.05,-137.24 -138.6,180.94 -169.75,375.94 -146.55,557.46z"/>
  <path class="fil0" d="M1927.93 374.88c22.46,5.84 11.1,24.2 -7.29,23.73 -59.61,-1.6 -133.14,29.27 -206.29,122.05 -89.33,113.31 -138.04,231.85 -156.87,349.75 -0.42,2.67 -3.08,3.54 -2.7,-0.36 11.96,-124.2 56.91,-253.36 149.86,-374.69 79.63,-103.93 166.07,-135.35 223.29,-120.47z"/>
  <path class="fil2" d="M1532.94 595.14c67.7,-178.04 -2.13,-325.72 -86.77,-301.35 -54.57,15.71 -53.3,98.35 -25.31,141.68 31.7,49.04 101.76,75.1 112.08,159.67z"/>
  <path class="fil0" d="M1473.58 312.83c35.82,41.02 62.8,121.67 65.4,219.85 0.02,0.83 0.85,2.68 1.38,0.13 23.45,-113.06 -9.76,-204.41 -60.14,-228.9 -9.64,-4.68 -10.67,4.3 -6.63,8.92z"/>
  <path class="fil1" d="M1735.59 391.16c24.08,-188.94 155.22,-286.37 218.42,-225.03 40.75,39.55 0.73,111.87 -44.37,136.91 -51.04,28.36 -125.12,18.36 -174.05,88.12z"/>
  <path class="fil0" d="M1920.87 170.02c-50.92,19.33 -112.67,77.79 -161.18,163.18 -0.41,0.71 -2.01,1.96 -1.29,-0.54 32.55,-110.79 104.84,-175.76 160.81,-173.63 10.71,0.41 7.4,8.8 1.66,10.99z"/>
  <path class="fil2" d="M1633.95 362.4l-0.01 0.31c0.01,-0.05 0.01,-0.1 0.02,-0.15 0.01,0.05 0.01,0.1 0.01,0.15l0.02 -0.31c8.62,-79.07 89.45,-145.55 80.91,-216.08 -8.09,-66.82 -54.34,-84.12 -75.35,-84.61l0 -0.01c-0.04,0 -0.08,0.01 -0.12,0.01 -0.04,0 -0.08,-0.02 -0.12,-0.02l0 0.02c-21.01,-0.27 -67.88,15.33 -78.37,81.82 -11.1,70.18 67.27,139.54 73.01,218.87z"/>
  <path class="fil0" d="M1586.48 169.88c11.18,-74.03 82.31,-94.43 66.79,-97.41l0 -0.01c-0.04,0 -0.09,0 -0.12,0 -0.04,0 -0.08,0 -0.12,0l0 0c-21.01,-0.26 -67.87,15.33 -78.37,81.83 -2.93,18.52 0.61,36.91 6.94,55.62 3.37,9.98 6.99,5.6 5.76,-1.5 -2.22,-12.86 -2.82,-25.68 -0.88,-38.53z"/>
  <path class="fil3" d="M1471.63 1255.19c-53.02,0 -95.87,-17.18 -128.5,-51.58 -32.65,-34.37 -48.67,-82.74 -48.07,-145.1l1.75 -430.08 165.21 -48.94 0.85 430.06c0,23.9 6.42,41.53 19.25,52.88 12.81,11.36 27.65,17.05 44.58,17.05 12.23,0 22.13,-2.63 29.7,-7.86l38.48 154.72c-43.7,19.22 -84.8,28.84 -123.26,28.84z"/>
  <path class="fil3" d="M1998.89 1248.19l-0.88 -41.08c-15.73,13.4 -35.27,24.18 -58.58,32.34 -23.31,8.18 -47.19,12.24 -71.68,12.24 -38.45,0 -73.99,-10.63 -106.63,-31.92 -32.65,-21.27 -58.58,-49.96 -77.8,-86.1 -19.22,-36.13 -28.85,-75.75 -28.85,-118.88 0,-43.71 9.92,-83.62 29.73,-119.76 19.8,-36.12 47.04,-64.53 81.72,-85.23 34.66,-20.68 72.99,-31.02 114.95,-31.02 22.72,0 44.15,3.79 64.25,11.35 20.12,7.57 36.28,18.07 48.51,31.47l0 -37.59 145.11 0 20.11 464.15 -159.95 0zm-57.7 -154.71c13.97,-9.31 25.04,-21.71 33.22,-37.16 8.15,-15.43 12.23,-31.9 12.23,-49.38 0,-23.89 -7.73,-43.83 -23.19,-59.88 -15.44,-16.01 -34.82,-24.02 -58.11,-24.02 -25.66,0 -48.07,9.03 -67.3,27.1 -19.24,18.06 -28.84,39.63 -28.84,64.68 0,15.16 4.21,30.02 12.67,44.59 8.44,14.56 19.52,26.22 33.2,34.95 13.69,8.74 27.83,13.12 42.4,13.12 15.14,0 29.7,-4.65 43.7,-13.98z"/>
  <path class="fil3" d="M2583.95 943.13c-26.23,-14.55 -49.55,-25.19 -69.93,-31.91 -20.41,-6.69 -39.93,-10.04 -58.57,-10.04 -17.49,0 -31.91,2.62 -43.28,7.85 -11.36,5.25 -17.03,11.96 -17.03,20.11 0,14.58 20.39,21.85 61.17,21.85 59.46,0 105.77,11.66 138.98,34.97 33.23,23.31 49.84,55.66 49.84,97.02 0,31.47 -9.78,60.47 -29.29,86.98 -19.53,26.52 -45.77,47.63 -78.68,63.36 -32.91,15.74 -68.9,23.61 -107.95,23.61 -38.45,0 -75.16,-7.15 -110.14,-21.43 -34.96,-14.27 -62.64,-33.34 -83.03,-57.24l88.29 -99.65c13.99,12.23 30.01,21.71 48.07,28.41 18.06,6.7 36.41,10.05 55.09,10.05 18.04,0 33.35,-3.05 45.87,-9.18 12.52,-6.12 18.82,-13.55 18.82,-22.28 0,-7 -4.09,-11.95 -12.24,-14.87 -8.17,-2.9 -21.86,-4.37 -41.1,-4.37 -3.49,0.59 -8.74,0.88 -15.72,0.88 -29.16,0 -56.69,-6.56 -82.61,-19.68 -25.93,-13.11 -46.76,-30.73 -62.49,-52.87 -15.72,-22.15 -23.63,-46.03 -23.63,-71.68 0,-26.79 9.03,-51.85 27.13,-75.16 18.05,-23.3 42.22,-42.1 72.55,-56.39 30.3,-14.27 62.33,-21.42 96.15,-21.42 33.79,0 67.74,6.72 101.83,20.11 34.08,13.42 65.13,32.06 93.1,55.94l-61.19 97.03z"/>
  <path class="fil3" d="M3072.74 1248.19l0 -244.75c0,-24.46 -7.29,-43.7 -21.86,-57.68 -14.56,-13.99 -34.38,-20.98 -59.43,-20.98 -41.4,0 -69.94,21.56 -85.67,64.67l3.5 257.86 -164.33 -2.6 -12.23 -701.06 166.08 0 4.37 292.85c17.47,-19.82 40.21,-35.85 68.17,-48.09 27.98,-12.23 56.24,-18.36 84.8,-18.36 53.61,0 96.27,19.54 128.06,58.58 31.74,39.04 47.92,91.79 48.5,158.21l1.76 261.36 -161.72 0z"/>
  <path class="fil4" d="M1014.43 1262.54c522.37,-3.39 1051.7,551.54 1801.6,50.87 -887.23,292.07 -1191.01,-122.32 -1801.6,-50.87z"/>
  <path class="fil3" d="M1150.55 837.8c32.05,41.08 48.1,93.39 48.1,156.9 0,44.88 -8.31,86.1 -24.92,123.68 -16.61,37.6 -40.06,67.31 -70.37,89.16 -30.3,21.85 -65.57,32.78 -105.77,32.78 -43.14,0 -78.97,-7.86 -107.51,-23.6l7.87 240.38 -173.08 0 0 -675.69 142.49 0.87 6.11 46.33c20.38,-16.9 44.27,-30.6 71.66,-41.09 27.4,-10.49 52.46,-15.44 75.19,-14.86 54.75,2.33 98.19,24.04 130.23,65.13zm-114.05 237.32c14.26,-15.15 21.4,-35.83 21.4,-62.06 0,-27.38 -7.86,-49.39 -23.6,-66.01 -15.73,-16.6 -36.44,-24.9 -62.06,-24.9 -25.06,0 -45.89,7.85 -62.5,23.6 -16.62,15.72 -24.93,35.55 -24.93,59.44 0,25.07 9.47,46.77 28.42,65.11 18.95,18.36 41.22,27.55 66.88,27.55 23.28,0 42.1,-7.56 56.38,-22.73z"/>
  <path class="fil5" d="M2226.6 1583.63c-459.99,24.08 -809.69,-273.08 -1310.77,-264.86l2.69 81.9c466,12.65 829.75,299.43 1324.82,270.54 329.52,-19.31 589.85,-163.18 853.5,-397.15 -346.12,210.11 -541.63,292.42 -870.23,309.56z"/>
  <path class="fil5" d="M226.34 1720.26c88.83,-152.57 263.2,-283.42 476.11,-311.38l0 -74.89c-183.96,35.33 -396.99,156.99 -476.11,386.27z"/>
  <path class="fil3" d="M198.88 1230.2c-49.05,-21.48 -89.32,-50.09 -120.8,-85.83l122.61 -134.41c19.36,21.79 42.24,38.9 68.56,51.33 26.35,12.4 52.83,18.61 79.48,18.61 24.22,0 43.89,-4.54 59.03,-13.63 15.14,-9.09 22.72,-19.66 22.72,-31.79 0,-12.11 -7.27,-20.89 -21.8,-26.34 -14.52,-5.44 -33.32,-8.17 -56.31,-8.17 -44.81,0 -86.16,-9.38 -123.98,-28.16 -37.85,-18.76 -68.13,-44.66 -90.82,-77.65 -22.71,-33.01 -34.07,-70.09 -34.07,-111.27 0,-42.37 11.81,-80.52 35.42,-114.43 23.62,-33.9 55.39,-60.54 95.37,-79.93 39.95,-19.36 83.56,-29.05 130.79,-29.05 47.8,0 94.45,9.22 139.85,27.69 45.42,18.49 85.39,44.96 119.91,79.48l-102.65 138.96c-56.91,-41.77 -110.79,-62.68 -161.65,-62.68 -22.42,0 -41.78,3.96 -58.13,11.82 -16.37,7.88 -24.54,17.26 -24.54,28.15 0,11.53 9.68,20.16 29.06,25.89 19.38,5.76 42.39,8.63 69.04,8.63 48.45,0 91.74,7.58 129.88,22.71 38.15,15.14 68.12,37.56 89.93,67.21 21.78,29.67 32.69,65.7 32.69,108.07 0,45.43 -12.87,87.06 -38.6,124.89 -25.76,37.85 -60.11,67.67 -103.08,89.47 -43.01,21.8 -89.63,32.7 -139.88,32.7 -49.65,0 -98.99,-10.76 -148.04,-32.25z"/>
  <path class="fil3" d="M3245.97 838.9c4.72,0 8.76,-0.51 8.76,-6.07 0,-4.73 -4.55,-5.23 -8.26,-5.23l-7.6 0 0 11.3 7.1 0zm-7.1 21.6l-6.24 0 0 -38.14 14.51 0c9.28,0 13.83,3.2 13.83,10.98 0,6.91 -4.21,9.79 -9.95,10.46l10.8 16.71 -7.09 0 -9.94 -16.37 -5.92 0 0 16.37zm6.76 -48.27c-14.86,0 -26.5,11.65 -26.5,28.53 0,15.69 10.12,28.52 26.5,28.52 14.84,0 26.49,-11.65 26.49,-28.52 0,-16.88 -11.65,-28.53 -26.49,-28.53zm0 63.13c-19.75,0 -33.93,-14.85 -33.93,-34.59 0,-20.76 15.69,-34.6 33.93,-34.6 18.22,0 33.92,13.84 33.92,34.6 0,20.75 -15.69,34.59 -33.92,34.59z"/>
  <path class="fil6" d="M3304.79 1604.06c-5.99,15.8 -12.99,28.34 -15.24,30.38l0 -0.35c0,-1.8 0.67,-5.3 1.91,-9.93 1.92,-6.88 5.08,-15.69 9.26,-25.3 3.5,-8.23 10.5,-23.72 15.37,-31.94 -3.4,10.72 -7.8,27.78 -11.3,37.15zm-71.49 -7.72c-4.52,21.81 -14.81,41.21 -28.34,58.82 -13.36,17.42 -29.43,32.76 -46.16,46.9 -11.35,9.6 -26.24,25.1 -42.77,24.06 -18.88,-1.2 -4.58,-36.61 -0.44,-45.88 17.68,-39.57 47.94,-72.77 77.72,-103.56 9.57,-9.88 19.6,-20.35 30.24,-30.27 14.54,11.86 13.32,32.63 9.75,49.93zm-108.42 -53.65c-3.91,1.39 -7.77,2.9 -11.59,4.49 14.49,-40.92 33.23,-80.44 54.9,-117.96 12.04,-20.84 25.86,-40.64 42.93,-57.68 9.3,-9.29 22.5,-21.67 36.41,-22.72 12.26,-0.93 11.03,17.07 9.93,24.53 -2.93,20.06 -12.21,39.85 -22.57,57.08 -21.57,35.88 -53.36,65.66 -85.18,92.36 -8.14,6.82 -16.44,13.43 -24.84,19.91zm-23.86 17.83c-2.71,1.98 -5.44,3.94 -8.16,5.88 0.13,-1.26 0.27,-2.51 0.41,-3.77 2.83,-1.58 5.69,-3.09 8.58,-4.54 -0.27,0.8 -0.56,1.63 -0.82,2.43zm-10.82 36.9c0.48,-7.9 1.07,-15.81 1.84,-23.7 2.02,-1.42 4.05,-2.83 6.08,-4.24 -2.9,9.23 -5.58,18.54 -7.92,27.94zm-5.35 -29.83c-0.17,1.6 -0.3,3.2 -0.46,4.81 -5.86,4.12 -11.76,8.22 -17.67,12.27 -4.08,2.81 -8.17,5.6 -12.24,8.44 -1.46,1 -2.9,2.03 -4.33,3.07 -0.18,0.11 -4,1.73 -3.59,0.64 1.16,-3.13 5.8,-6.45 8.13,-8.42 9.27,-7.81 19.71,-14.64 30.18,-20.9 0,0.02 -0.02,0.05 -0.02,0.08zm294.71 -50.49c-0.46,-0.11 -1.03,-0.11 -1.59,-0.11 -9.48,0 -36.92,10.84 -46.76,24.05 1.14,-4.52 6.78,-19.31 6.78,-28.91 0,-4.97 -1.48,-8.58 -5.76,-8.7 -10.39,0 -32.41,36.14 -42.57,37.94l-0.23 0c-1.13,0 -1.59,-1.02 -1.8,-2.82 -0.11,-1.01 -0.23,-1.92 -0.23,-2.94 0,-8.92 4.52,-19.76 6.66,-28.12 0,-0.22 0.11,-0.57 0.11,-0.79 0,-2.6 -3.84,-4.97 -6.65,-4.97 -0.41,0 -0.78,0.05 -1.13,0.14 -3.95,0.63 -7.89,1.41 -11.88,2.96 -11.72,4.58 -22.38,11.93 -32.37,19.44 -5.88,4.43 -11.64,9.11 -17.34,13.9 -22.95,-13.79 -61.13,-6.63 -83.46,-0.68 38.38,-30.08 74.12,-63.89 99.78,-104.54 10.51,-16.68 18.58,-35.45 23.12,-54.66 2.22,-9.34 4.41,-23.26 -3.33,-30.83 -6.35,-6.2 -16.54,-3.84 -23.84,-1.08 -13.78,5.18 -25.55,16.19 -35.65,26.53 -21.05,21.54 -36.6,47.75 -50.92,74.03 -15.75,28.92 -29.38,59.02 -41.03,89.82 -1.79,4.77 -3.55,9.58 -5.24,14.4 -3.44,1.63 -6.86,3.32 -10.23,5.1 0.65,-5.35 1.37,-10.69 2.13,-16.02 4.81,-33.42 12.28,-66.34 20.78,-99 1.16,-4.47 2.34,-8.93 3.44,-13.42 0.77,-3.14 4.59,-13.92 1.29,-17.01 -5.95,-5.57 -13.05,4.68 -15.86,8.78 -15.61,22.7 -32.02,45.69 -52.11,64.77 -3.48,3.29 4.2,4.04 6.44,1.89 18.92,-17.95 34.87,-39.49 49.78,-60.77 1.59,-2.25 2.97,-4.59 4.52,-6.83 -0.39,4.05 -1.49,8.06 -2.47,11.98 -2.62,10.46 -5.43,20.86 -8.01,31.31 -8.08,32.6 -14.31,65.62 -18.27,98.98 -11.77,6.76 -23.06,14.35 -33.73,22.56 -4.31,3.33 -13.49,9.28 -13.44,15.53 0.04,5.97 10.09,3.3 13.01,2.25 8.45,-3.07 16.7,-11.02 24.02,-16.06 2.72,-1.87 5.46,-3.78 8.21,-5.67 -1.69,18.73 -2.57,37.53 -2.62,56.32 -0.02,2.25 -1.99,21.95 3.92,21.95 1.87,0 4.13,-0.52 5.14,-2.29 2.33,-4.16 1.15,-11.95 1.27,-16.41 0.16,-6.23 0.67,-12.28 1.64,-18.42 2.59,-16.56 7.11,-32.82 12,-48.8 0.99,-3.2 2.07,-6.37 3.11,-9.56 7.29,-5.23 14.55,-10.58 21.75,-16.02 6.49,-2.23 13.09,-4.18 19.76,-5.79 21.33,-5.13 48.4,-8.48 68.57,2.33 0.24,0.12 0.43,0.27 0.65,0.4 -27.83,24.21 -53.33,52.21 -75.72,80.71 -17.04,21.71 -33.66,46.12 -41.5,72.92 -1.87,6.44 -3.01,13.33 -2.7,20.01 0.56,11.97 11.41,15.61 21.67,14.12 15.19,-2.18 26.77,-12.47 38.26,-21.77 17,-13.77 33.07,-28.81 47.19,-45.57 15.31,-18.15 27.94,-38.87 33.72,-62.06 4.06,-16.24 6.92,-33.73 -1.34,-49.18 -2.43,-4.52 -5.59,-8.18 -9.29,-11.16 14.54,-12.95 30.24,-24.52 47.52,-31.91 2.25,-0.95 4.51,-1.61 6.77,-2.11 -2.54,8.81 -6.82,20.8 -6.82,29.85 0,1.7 0.11,3.38 0.57,4.85 0.34,3.38 2.92,5.2 6.65,5.2 1.36,0 2.72,-0.23 4.3,-0.68 10.04,-2.59 37.83,-38.72 41.77,-38.72l0.24 0c0.11,0.1 0.22,0.44 0.22,1.12 0,4.86 -4.85,24.96 -5.42,27.11 -1.13,4.39 -3.38,11.85 -4.74,16.71 -8.8,12.09 -19.87,30.15 -25.63,43.37 -4.18,9.6 -7.46,18.64 -9.38,25.64 -0.45,1.59 -1.46,5.64 -1.46,9.48 0,3.51 0.9,6.78 4.06,7.79 0.23,0.12 0.46,0.12 0.8,0.12 6.65,0 17.16,-28.45 18.63,-32.3 5.41,-14.23 16.15,-42.12 20.77,-58.15 9.15,-12.31 26.54,-26.09 51.51,-27 1.01,-1.02 1.79,-2.03 1.79,-2.93 0,-0.68 -0.56,-1.24 -1.79,-1.59z"/>
  <path class="fil7" d="M3552.23 2120.23c-214.67,-0.46 -388.51,-119.66 -388.2,-266.18 0.31,-146.52 174.66,-264.98 389.33,-264.51 214.67,0.46 388.5,119.65 388.2,266.17 -0.32,146.52 -174.66,264.98 -389.33,264.52z"/>
  <path class="fil8" d="M3497.08 1880.31l-19.18 -0.04c-13.09,-0.03 -22.7,-2.05 -28.91,-6.02 -6.15,-3.97 -9.21,-10.14 -9.19,-18.47 0.02,-8.34 3.16,-14.55 9.39,-18.6 6.21,-4.04 15.83,-6.08 28.82,-6.05l39.99 0.08c13.54,0.03 23.27,2.82 29.19,8.29 5.86,5.53 8.8,14.52 8.78,26.97 -0.08,32.91 -10.37,59.51 -30.88,79.92 -20.52,20.4 -47.45,30.58 -80.78,30.51 -33.56,-0.07 -60.96,-11.49 -82.21,-34.26 -21.27,-22.77 -31.84,-52.23 -31.76,-88.38 0.08,-37.29 11.04,-66.97 32.86,-88.95 21.86,-21.98 51.2,-32.95 88,-32.88 24.39,0.06 45.08,4.97 62.17,14.75 17.04,9.72 25.58,20.89 25.56,33.49 -0.02,6.54 -2.33,12.28 -6.92,17.25 -4.6,4.97 -9.97,7.44 -16.24,7.43 -4.03,-0.01 -13.03,-3.76 -27,-11.31 -13.97,-7.55 -27.11,-11.31 -39.47,-11.34 -18.46,-0.03 -33.08,6.27 -43.84,18.85 -10.83,12.59 -16.22,29.89 -16.28,51.86 -0.04,22.35 5.34,40.1 16.11,53.33 10.77,13.24 25.24,19.86 43.37,19.91 14.44,0.02 26.03,-4.17 34.77,-12.54 8.74,-8.37 13.3,-19.62 13.66,-33.79z"/>
  <path class="fil8" d="M3570.54 1871.26l0.21 -97.35c0.02,-12.55 2.28,-21.91 6.77,-28.13 4.48,-6.16 11.32,-9.22 20.55,-9.21 9.17,0.03 15.99,3.12 20.45,9.3 4.46,6.24 6.67,15.61 6.65,28.16l-0.2 91.45c-0.04,20.39 3.95,35.77 11.93,46.07 8.03,10.35 20,15.52 35.94,15.56 15.82,0.03 27.81,-5.09 35.89,-15.4 8.13,-10.27 12.19,-25.63 12.23,-46.03l0.2 -91.45c0.02,-12.55 2.28,-21.91 6.77,-28.12 4.48,-6.16 11.26,-9.23 20.38,-9.21 9.17,0.02 15.99,3.11 20.45,9.3 4.46,6.23 6.67,15.6 6.64,28.15l-0.2 97.35c-0.08,33.49 -9.13,59.51 -27.19,78.03 -18.11,18.52 -43.2,27.72 -75.3,27.65 -32.22,-0.07 -57.32,-9.38 -75.35,-27.97 -17.98,-18.6 -26.92,-44.66 -26.85,-78.15z"/>
  <path class="fil8" d="M3311.47 1939.31c-0.02,11.12 -2.16,19.34 -6.42,24.7 -4.26,5.31 -10.82,7.97 -19.71,7.95 -8.95,-0.02 -15.61,-2.75 -19.95,-8.12 -4.35,-5.38 -6.52,-13.61 -6.49,-24.64l0.19 -90.39c0.02,-11.03 2.22,-19.19 6.54,-24.55 4.32,-5.31 10.98,-7.96 20.04,-7.94 8.9,0.01 15.44,2.69 19.68,8.02 4.24,5.37 6.35,13.56 6.33,24.58l-0.2 90.39z"/>
  <path class="fil8" d="M3255.12 1765.19c0.01,-8.12 3.04,-15.09 9.05,-20.92 6.05,-5.78 13.22,-8.69 21.66,-8.68 8.28,0.02 15.38,2.96 21.3,8.76 5.86,5.86 8.8,12.84 8.79,20.96 -0.02,8.22 -2.94,15.2 -8.83,20.92 -5.83,5.67 -12.99,8.53 -21.39,8.51 -8.62,-0.02 -15.88,-2.9 -21.79,-8.6 -5.86,-5.75 -8.81,-12.74 -8.79,-20.96z"/>
  <path class="fil8" d="M3845.98 1940.46c-0.03,11.11 -2.17,19.33 -6.43,24.69 -4.26,5.31 -10.81,7.97 -19.71,7.95 -8.94,-0.02 -15.6,-2.75 -19.95,-8.12 -4.35,-5.38 -6.51,-13.61 -6.49,-24.64l0.2 -90.39c0.02,-11.03 2.22,-19.19 6.53,-24.55 4.32,-5.31 10.99,-7.96 20.05,-7.94 8.89,0.01 15.44,2.69 19.67,8.02 4.24,5.38 6.36,13.56 6.33,24.59l-0.19 90.39z"/>
  <path class="fil8" d="M3790.04 1766.33c0.01,-8.12 3.05,-15.09 9.04,-20.92 6.06,-5.78 13.23,-8.69 21.67,-8.67 8.28,0.01 15.38,2.95 21.3,8.75 5.86,5.86 8.81,12.84 8.79,20.96 -0.02,8.23 -2.94,15.2 -8.83,20.92 -5.83,5.67 -13,8.53 -21.39,8.51 -8.62,-0.02 -15.88,-2.9 -21.79,-8.6 -5.87,-5.75 -8.81,-12.74 -8.79,-20.96z"/>
  <path class="fil0" d="M3863.97 1969.32c-5.31,0 -9.63,-4.25 -9.63,-9.48 0,-5.23 4.31,-9.49 9.63,-9.49 5.31,0 9.64,4.25 9.64,9.49 0,5.22 -4.32,9.48 -9.64,9.48zm11.11 -14.14c-0.6,-1.43 -1.48,-2.7 -2.59,-3.8 -1.11,-1.09 -2.4,-1.95 -3.84,-2.56 -1.49,-0.61 -3.06,-0.93 -4.69,-0.93 -1.63,0 -3.2,0.32 -4.69,0.93 -1.44,0.6 -2.73,1.47 -3.84,2.56 -1.1,1.1 -1.97,2.37 -2.59,3.8 -0.63,1.48 -0.95,3.04 -0.95,4.66 0,1.61 0.32,3.17 0.95,4.65 0.61,1.43 1.49,2.7 2.59,3.8 1.11,1.09 2.4,1.95 3.84,2.55 1.49,0.62 3.06,0.94 4.69,0.94 1.63,0 3.2,-0.32 4.69,-0.94 1.44,-0.59 2.73,-1.46 3.84,-2.55 1.11,-1.1 1.98,-2.37 2.59,-3.8 0.63,-1.48 0.95,-3.04 0.95,-4.65 0,-1.62 -0.32,-3.18 -0.95,-4.66z"/>
  <polygon class="fil0" points="3862.94,1956.17 3855.42,1956.17 3855.42,1957.82 3858.3,1957.82 3858.3,1964.7 3860.09,1964.7 3860.09,1957.82 3862.94,1957.82 "/>
  <polygon class="fil0" points="3867.3,1961.97 3865.01,1956.25 3864.98,1956.17 3863.29,1956.17 3862.69,1964.56 3862.68,1964.7 3864.45,1964.7 3864.77,1959.97 3866.67,1964.62 3866.7,1964.7 3867.9,1964.7 3869.82,1959.97 3870.15,1964.58 3870.16,1964.7 3871.92,1964.7 3871.32,1956.29 3871.31,1956.17 3869.61,1956.17 "/>
  <path class="fil0" d="M844.03 1693.71c1.9,-1.76 4.71,-3.57 10.98,-3.57 4.69,0 6.98,1.25 8.48,2.35 2.65,1.94 3.92,3.54 4.21,4.39l2.77 7.93 -3 10.26c-0.22,0.32 -0.64,0.9 -1.39,1.74 -1.31,1.48 -3.23,2.86 -5.71,4.1 -1.74,0.87 -3.6,1.28 -5.85,1.28 -2.6,0 -4.68,-0.53 -6.81,-1.73 -1.12,-0.62 -2.62,-1.73 -4.2,-4.61 -1.48,-2.67 -2.22,-6.37 -2.22,-10.97 0,-3.23 0.37,-8.98 2.76,-11.18zm761.96 -7.05c-2.34,-3.19 -4.89,-6.19 -7.63,-8.98l31.69 -42.9 -19 -19.02c-12.55,-12.56 -27.3,-22.36 -43.87,-29.1 -16.4,-6.66 -33.52,-10.04 -50.88,-10.04 -17.93,0 -34.82,3.79 -50.19,11.26 -16,7.75 -29.02,18.72 -38.71,32.63 -7.84,11.27 -12.72,23.71 -14.59,37.08l-26.06 -78.71 -92.82 -0.93 -50.57 103.16 0.84 -107.18 -111.79 4.05 -0.33 44.97 -35.03 -45.96 -96.76 -3.98 0.05 5.14 -71.14 0 -0.18 22.45c-7.61,-5.71 -15.81,-10.51 -24.69,-14.14 -15.5,-6.36 -31.84,-9.58 -48.56,-9.58 -23.01,0 -44.63,5.85 -64.24,17.4 -9.33,5.49 -17.75,11.98 -25.26,19.36 -12.05,-11.51 -25.95,-20.64 -41.52,-26.98 -16.41,-6.66 -33.52,-10.04 -50.88,-10.04 -17.94,0 -34.82,3.79 -50.2,11.26 -5.79,2.8 -11.04,6.17 -16.03,9.81l0.16 -19.54 -111.76 0 -0.17 21.87c-5.4,-3.85 -11.07,-7.42 -17.29,-10.4l-0.02 -0.02c-38.57,-18.5 -83.63,-16.65 -133.07,8.45l-17.66 8.96 6.52 226.67 113.17 0 -1.27 -50.93c13.29,-1.83 25.89,-5.91 37.64,-12.16 3.75,-1.99 7.28,-4.22 10.7,-6.55l-0.56 69.64 111.75 0 0.11 -14.07c2.93,1.55 5.84,3.1 8.95,4.46 17.62,7.73 35.77,11.65 53.95,11.65 18.95,0 36.87,-4.21 53.25,-12.53 15.31,-7.76 27.88,-18.49 37.73,-31.69 8.43,9.9 18.23,18.47 29.38,25.52 19.32,12.24 40.62,18.44 63.33,18.44 17.91,0 35.43,-3.93 52.06,-11.68 8.22,-3.84 15.84,-8.42 22.83,-13.68l-0.19 23.58 75.45 0 0.02 2.67 111.75 -4.04 -0.4 -42.02 32.16 43.39 96 0 0.12 -15.54 55.73 22.85 20.09 -49.91 19.52 0.08 13.13 48.74 93.41 -22.4c4.18,2.37 8.55,4.57 13.1,6.56 17.63,7.73 35.77,11.65 53.95,11.65 18.96,0 36.87,-4.21 53.25,-12.53 16.74,-8.49 30.38,-20.35 40.55,-35.32 10.74,-15.8 16.19,-33.47 16.19,-52.49 0,-18.58 -5.12,-34.97 -15.2,-48.71l-0.01 -0.01z"/>
  <path class="fil3" d="M457 1695.95c-3.05,4.06 -7.08,7.29 -12.08,9.66 -5,2.37 -10.2,3.56 -15.63,3.56 -4.06,0 -8.04,-0.77 -11.94,-2.29l-1.01 -49.29c4.74,-2.54 9.65,-3.82 14.73,-3.82 8.13,0 15.25,2.77 21.34,8.27 6.11,5.5 9.15,12.4 9.15,20.7 0,4.74 -1.53,9.14 -4.57,13.21zm12.19 -76.21c-13.05,-6.27 -27.02,-9.4 -41.93,-9.4 -19.3,0 -40.48,5.84 -63.5,17.53l5.08 176.57 50.81 0 -1.27 -51.07c5.58,0.85 10.67,1.28 15.24,1.28 14.4,0 27.65,-3.22 39.76,-9.66 12.11,-6.44 21.63,-15.16 28.58,-26.16 6.94,-11.02 10.42,-23.04 10.42,-36.08 0,-13.72 -3.95,-26.09 -11.82,-37.09 -7.87,-11.02 -18.34,-19.65 -31.37,-25.92z"/>
  <polygon class="fil3" points="529.65,1804.44 578.93,1804.44 580.46,1611.36 531.18,1611.36 "/>
  <path class="fil3" d="M717.39 1688.34c-10.67,-4.24 -22.78,-6.36 -36.33,-6.36 -7.46,0 -13.89,-0.8 -19.3,-2.41 -5.42,-1.62 -8.13,-4.03 -8.13,-7.25 0,-3.04 2.28,-5.67 6.85,-7.87 4.57,-2.2 9.99,-3.3 16.26,-3.3 14.23,0 29.3,5.84 45.23,17.53l28.7 -38.88c-9.66,-9.65 -20.83,-17.05 -33.54,-22.23 -12.7,-5.16 -25.75,-7.74 -39.12,-7.74 -13.21,0 -25.4,2.71 -36.57,8.13 -11.18,5.42 -20.08,12.87 -26.68,22.36 -6.6,9.48 -9.9,20.16 -9.9,32 0,11.52 3.18,21.89 9.53,31.12 6.35,9.24 14.81,16.48 25.4,21.72 10.58,5.24 22.14,7.87 34.68,7.87 6.43,0 11.69,0.76 15.75,2.29 4.06,1.53 6.1,3.99 6.1,7.37 0,3.39 -2.12,6.35 -6.36,8.89 -4.24,2.54 -9.75,3.81 -16.52,3.81 -7.46,0 -14.86,-1.74 -22.23,-5.21 -7.37,-3.47 -13.76,-8.26 -19.17,-14.36l-34.3 37.61c8.8,9.98 20.08,17.99 33.79,24 13.72,6.02 27.52,9.02 41.41,9.02 14.06,0 27.1,-3.05 39.12,-9.15 12.03,-6.1 21.63,-14.44 28.83,-25.02 7.21,-10.59 10.8,-22.23 10.8,-34.93 0,-11.86 -3.04,-21.93 -9.14,-30.23 -6.1,-8.3 -14.49,-14.56 -25.15,-18.8z"/>
  <path class="fil3" d="M859.15 1660.9c10.33,0 19.31,2.8 26.93,8.39 7.63,5.58 12.71,12.03 15.25,19.31l44.21 -13.47c-3.56,-14.05 -9.66,-26 -18.29,-35.82 -8.64,-9.82 -18.85,-17.14 -30.62,-21.97 -11.77,-4.84 -24.01,-7.24 -36.71,-7.24 -17.45,0 -33.58,4.36 -48.39,13.09 -14.82,8.71 -26.55,20.48 -35.19,35.31 -8.64,14.82 -12.96,31.12 -12.96,48.91 0,17.44 4.2,33.74 12.58,48.9 8.38,15.16 19.72,27.28 34.04,36.33 14.31,9.06 29.85,13.59 46.62,13.59 13.38,0 26.33,-2.91 38.87,-8.76 12.54,-5.84 23.04,-13.76 31.51,-23.76 8.47,-9.99 13.71,-20.92 15.74,-32.78l-41.4 -14.22c-1.18,4.06 -3.78,8.34 -7.75,12.83 -3.98,4.48 -9.02,8.25 -15.11,11.3 -6.1,3.05 -12.71,4.58 -19.82,4.58 -7.96,0 -15.33,-1.91 -22.1,-5.72 -6.78,-3.81 -12.19,-9.41 -16.26,-16.78 -4.06,-7.36 -6.1,-16.04 -6.1,-26.04 0,-14.9 4.27,-26.29 12.83,-34.18 8.56,-7.87 19.26,-11.81 32.13,-11.81z"/>
  <polygon class="fil3" points="962.81,1804.44 1012.08,1804.44 1013.61,1611.36 964.32,1611.36 "/>
  <polygon class="fil3" points="1166.8,1716.54 1085.25,1609.58 1035.97,1607.54 1037.74,1805.96 1087.03,1804.18 1086.01,1696.47 1166.04,1804.43 1215.32,1804.43 1216.85,1608.31 1167.55,1610.09 "/>
  <path class="fil3" d="M1321.52 1710.94l18.28 -45.48 12.19 45.73 -30.48 -0.25zm-4.07 -99.58l-83.32 169.96 50.81 20.83 16.25 -40.39 64.53 0.25 11.43 42.43 50.81 -12.19 -59.71 -180.38 -50.81 -0.51z"/>
  <path class="fil3" d="M1584.96 1707.14c-6.09,-8.3 -14.48,-14.57 -25.14,-18.8 -10.67,-4.24 -22.78,-6.36 -36.34,-6.36 -7.45,0 -13.88,-0.8 -19.3,-2.41 -5.41,-1.62 -8.13,-4.03 -8.13,-7.25 0,-3.04 2.29,-5.67 6.86,-7.87 4.57,-2.2 9.99,-3.3 16.26,-3.3 14.23,0 29.3,5.84 45.22,17.53l28.7 -38.88c-9.65,-9.65 -20.83,-17.05 -33.53,-22.23 -12.7,-5.16 -25.75,-7.74 -39.12,-7.74 -13.22,0 -25.41,2.71 -36.58,8.13 -11.17,5.42 -20.07,12.87 -26.68,22.36 -6.59,9.48 -9.89,20.16 -9.89,32 0,11.52 3.17,21.89 9.53,31.12 6.35,9.24 14.81,16.48 25.4,21.72 10.58,5.24 22.14,7.87 34.67,7.87 6.43,0 11.69,0.76 15.75,2.29 4.06,1.53 6.1,3.99 6.1,7.37 0,3.39 -2.12,6.35 -6.35,8.89 -4.24,2.54 -9.75,3.81 -16.52,3.81 -7.46,0 -14.86,-1.74 -22.24,-5.21 -7.36,-3.47 -13.75,-8.26 -19.16,-14.36l-34.3 37.61c8.8,9.98 20.07,18 33.79,24 13.71,6.02 27.51,9.02 41.4,9.02 14.07,0 27.11,-3.05 39.12,-9.15 12.04,-6.1 21.63,-14.44 28.84,-25.02 7.2,-10.59 10.8,-22.23 10.8,-34.94 0,-11.84 -3.05,-21.92 -9.15,-30.22z"/>
 </g>
</svg>
